<?xml version="1.0" encoding="UTF-8" standalone="no"?>
<svg
   xmlns:dc="http://purl.org/dc/elements/1.1/"
   xmlns:cc="http://creativecommons.org/ns#"
   xmlns:rdf="http://www.w3.org/1999/02/22-rdf-syntax-ns#"
   xmlns:svg="http://www.w3.org/2000/svg"
   xmlns="http://www.w3.org/2000/svg"
   version="1.1"
   id="svg2"
   viewBox="0 0 211.21259 202.12619"
   height="57.044502mm"
   width="59.608883mm">
  <defs
     id="defs4" />
  <metadata
     id="metadata7">
    <rdf:RDF>
      <cc:Work
         rdf:about="">
        <dc:format>image/svg+xml</dc:format>
        <dc:type
           rdf:resource="http://purl.org/dc/dcmitype/StillImage" />
        <dc:title></dc:title>
      </cc:Work>
    </rdf:RDF>
  </metadata>
  <g
     transform="translate(-266.02765,-446.02595)"
     id="layer1">
    <g
       id="text3436"
       style="font-style:normal;font-variant:normal;font-weight:normal;font-stretch:normal;font-size:206.37535095px;line-height:125%;font-family:KaiTi;-inkscape-font-specification:'KaiTi, Normal';text-align:start;letter-spacing:0px;word-spacing:0px;writing-mode:lr-tb;text-anchor:start;fill:#000000;fill-opacity:1;stroke:none;stroke-width:1px;stroke-linecap:butt;stroke-linejoin:miter;stroke-opacity:1">
      <path
         id="path3445"
         style=""
         d="m 344.58253,489.53542 q 22.5723,-1.6123 41.91999,-4.03076 3.22462,-17.73539 0,-24.18462 -3.22461,-7.25538 8.06154,-3.22461 12.0923,4.03077 9.67384,7.25538 -1.6123,3.22462 -7.25538,18.54154 12.0923,-0.80616 24.18461,-2.41846 12.09231,-2.41846 19.34769,4.03077 7.25538,6.44922 -8.86769,6.44922 -16.12308,-0.80615 -37.08307,0.80616 -4.03077,8.86769 -7.25539,15.31692 -3.22461,5.64308 -5.64307,5.64308 -2.41846,0 -0.80616,-4.83693 1.61231,-4.83692 3.22462,-15.31692 -17.73538,1.61231 -38.69538,3.22462 0,18.54153 -3.22461,16.92923 -2.41846,-2.41847 -5.64308,-14.51077 -18.54153,2.41846 -26.60307,4.03077 -7.25539,1.6123 -16.12308,-4.83693 -8.06153,-6.44923 2.41846,-5.64307 11.28616,0.80615 37.88923,-2.41846 -3.22462,-14.51077 -8.06154,-20.15385 -4.83692,-5.64307 7.25539,-4.03076 12.0923,0.80615 11.28615,6.44923 0,5.64307 0,16.92922 z m 20.95999,29.82769 q 29.02154,20.96 41.11384,28.21538 12.09231,6.44923 23.37846,11.28615 11.28615,4.83693 25.79692,8.06154 15.31692,2.41846 8.86769,4.83692 -5.64307,1.61231 -19.34769,3.22462 -12.89846,1.6123 -19.34769,0 -6.44923,-2.41846 -23.37845,-17.73538 -16.92923,-15.31692 -39.50154,-33.85846 -9.67384,11.28615 -20.95999,23.37846 -10.48,11.28615 -28.21538,23.37846 -16.92923,12.0923 -30.63384,15.31692 -12.89846,2.41846 -0.80616,-4.03077 12.89846,-6.44923 31.44,-21.76615 19.34769,-15.31692 29.82768,-30.63384 11.28616,-16.12308 10.48,-20.96 0,-5.64308 5.64308,-3.22462 5.64307,1.61231 8.06154,4.03077 3.22461,2.41846 1.6123,4.03077 -1.6123,1.61231 -4.03077,6.44923 z m 6.44923,47.56307 q 18.54154,-1.61231 24.18462,-3.22461 5.64307,-1.61231 12.0923,4.03076 7.25538,5.64308 -6.44923,6.44923 -13.70461,0 -29.82769,1.61231 0,15.31692 0.80616,29.82769 0.80615,14.51077 -1.61231,20.15384 -2.41846,5.64308 -7.25538,9.67385 -4.83693,4.83692 -7.25539,-1.61231 -1.6123,-5.64308 -10.47999,-12.89846 -8.8677,-6.44923 -0.80616,-4.03077 8.06154,2.41846 12.09231,1.61231 4.03077,-1.61231 4.03077,-9.67385 0.80615,-8.86769 0.80615,-30.63384 -17.73538,0.80616 -24.18461,2.41846 -6.44923,0.80616 -12.89846,-4.03077 -6.44923,-4.83692 0,-4.83692 7.25538,0 16.12307,-0.80615 9.67385,-0.80615 20.15385,-2.41846 -0.80616,-16.92923 -4.83693,-22.57231 -3.22461,-5.64307 3.22462,-4.03076 7.25538,0.80615 10.48,2.41846 4.03077,1.6123 3.22461,4.83692 -0.80615,3.22461 -1.61231,17.73538 z m 31.44,29.02153 q 8.86769,2.41847 13.70461,7.25539 5.64308,4.03077 4.83692,13.70461 -0.80615,8.86769 -8.06153,3.22462 -6.44923,-4.83693 -19.34769,-16.92923 -12.89846,-12.89846 -6.44923,-11.28615 7.25538,0.80615 15.31692,4.03076 z m -87.0646,8.8677 q 7.25538,-6.44923 12.0923,-12.89846 4.83693,-7.25539 3.22462,4.83692 -0.80616,11.28615 -9.67385,21.76615 -8.86769,10.48 -11.28615,1.61231 -1.61231,-8.8677 5.64308,-15.31692 z" />
    </g>
  </g>
</svg>
